Coordinates
version=1
nRows=13
nColumns=38
inDegrees=no

Units are S.I. units (second, meters, Newtons, ...)
If the header above contains a line with 'inDegrees', this indicates whether rotational values are in degrees (yes) or radians (no).

endheader
time	pelvis_tilt	pelvis_list	pelvis_rotation	pelvis_tx	pelvis_ty	pelvis_tz	hip_flexion_r	hip_adduction_r	hip_rotation_r	knee_angle_r	ankle_angle_r	subtalar_angle_r	mtp_angle_r	hip_flexion_l	hip_adduction_l	hip_rotation_l	knee_angle_l	ankle_angle_l	subtalar_angle_l	mtp_angle_l	lumbar_extension	lumbar_bending	lumbar_rotation	arm_flex_r	arm_add_r	arm_rot_r	elbow_flex_r	pro_sup_r	wrist_flex_r	wrist_dev_r	arm_flex_l	arm_add_l	arm_rot_l	elbow_flex_l	pro_sup_l	wrist_flex_l	wrist_dev_l
5	-3.06384	1.49185	-1.49314	0.546641	1.41161	1.08441	-0.0326747	-0.0296181	-0.131127	0.310044	-0.353843	0	0	-0.123436	-0.0481309	-0.0396472	0.378036	-0.165008	0	0	-0.242094	-0.0525726	0.203601	-0.146915	-0.531228	0.0417079	1.82307	1.36399	0	0	0.321167	-0.444369	0.660595	1.65806	1.5708	0	0
5.01	-3.06442	1.53136	-1.54674	0.550576	1.41963	1.08023	0.0171794	-0.0327436	-0.0689749	0.326452	-0.344729	0	0	-0.106531	-0.04325	-0.123745	0.354492	-0.175082	0	0	-0.167396	-0.0533044	0.252104	-0.247481	-0.551777	-0.04418	1.90408	1.3794	0	0	0.270457	-0.444954	0.659412	1.64896	1.5708	0	0
5.02	-3.09143	1.52631	-1.51951	0.550713	1.42022	1.08032	0.0111205	-0.0312652	-0.0701663	0.327418	-0.340842	0	0	-0.112537	-0.0455772	-0.126893	0.355892	-0.173337	0	0	-0.177472	-0.0479478	0.260535	-0.27715	-0.552832	-0.0627062	1.92863	1.38801	0	0	0.271286	-0.445158	0.67396	1.6477	1.5708	0	0
5.03	-3.09876	1.5233	-1.51042	0.550724	1.42081	1.08043	0.00622731	-0.030396	-0.0718936	0.326157	-0.339575	0	0	-0.116238	-0.0467156	-0.126218	0.356332	-0.17238	0	0	-0.179748	-0.0447081	0.25859	-0.29243	-0.553893	-0.0633967	1.93754	1.39396	0	0	0.263445	-0.448432	0.680441	1.64444	1.5708	0	0
5.04	-3.09669	1.47141	-1.45267	0.546469	1.41352	1.08525	-0.0617829	-0.0227449	-0.141535	0.301952	-0.354266	0	0	-0.146643	-0.0563567	-0.0383323	0.380809	-0.158458	0	0	-0.267248	-0.0341472	0.198852	-0.277759	-0.562173	-0.0706023	1.96466	1.34564	0	0	0.289774	-0.455993	0.680966	1.65752	1.5708	0	0
5.05	-3.10596	1.47089	-1.44095	0.5464	1.41401	1.085	-0.0632957	-0.021224	-0.143208	0.301752	-0.353826	0	0	-0.146764	-0.0581751	-0.0363208	0.382773	-0.156774	0	0	-0.267903	-0.0305415	0.194291	-0.291506	-0.559058	-0.0681699	1.97309	1.32458	0	0	0.278023	-0.45975	0.683217	1.65359	1.5708	0	0
5.06	-3.10846	1.46813	-1.43649	0.546363	1.41452	1.08505	-0.0675739	-0.0202305	-0.145127	0.300774	-0.353242	0	0	-0.149992	-0.0595544	-0.0357108	0.383424	-0.155295	0	0	-0.271077	-0.0269181	0.190162	-0.303311	-0.558545	-0.0650807	1.97711	1.29942	0	0	0.266865	-0.46298	0.685428	1.6472	1.5708	0	0
5.07	-3.11036	1.4651	-1.43243	0.546301	1.41504	1.08515	-0.0723894	-0.0191279	-0.147278	0.299336	-0.352818	0	0	-0.153615	-0.0610029	-0.0351732	0.383731	-0.154159	0	0	-0.274178	-0.0233951	0.185323	-0.312094	-0.559267	-0.0601438	1.97529	1.27406	0	0	0.25535	-0.465633	0.68657	1.63816	1.5708	0	0
5.08	-3.11136	1.46189	-1.42904	0.546149	1.41552	1.08526	-0.0774862	-0.0180974	-0.149844	0.297787	-0.352503	0	0	-0.157351	-0.0622894	-0.0345877	0.383991	-0.153141	0	0	-0.27779	-0.0198209	0.179383	-0.317476	-0.55967	-0.0532489	1.96864	1.24908	0	0	0.243067	-0.46714	0.685342	1.62664	1.5708	0	0
5.09	-3.11099	1.45853	-1.42746	0.546049	1.41587	1.08539	-0.0823475	-0.0171508	-0.151168	0.296723	-0.352148	0	0	-0.161176	-0.063382	-0.0343309	0.384257	-0.152306	0	0	-0.282877	-0.0166632	0.173057	-0.319308	-0.558645	-0.0457509	1.95766	1.22802	0	0	0.230726	-0.467542	0.68175	1.61327	1.5708	0	0
5.1	-3.1085	1.45485	-1.42788	0.545821	1.41616	1.08555	-0.0875209	-0.0165977	-0.152795	0.295829	-0.351618	0	0	-0.165388	-0.0640948	-0.0339863	0.384426	-0.151476	0	0	-0.288294	-0.0135082	0.165704	-0.317231	-0.567566	-0.0391645	1.93801	1.22735	0	0	0.218506	-0.466803	0.676617	1.59682	1.5708	0	0
5.11	-3.09643	1.45292	-1.43477	0.545204	1.41669	1.08564	-0.0923449	-0.0175079	-0.159509	0.293447	-0.351343	0	0	-0.167647	-0.0634425	-0.0295392	0.384317	-0.150868	0	0	-0.285455	-0.0122685	0.159734	-0.316375	-0.55748	-0.0277233	1.90754	1.24621	0	0	0.212532	-0.463826	0.680076	1.56908	1.5708	0	0
5.12	-3.07751	1.45357	-1.44347	0.54379	1.41763	1.0855	-0.0965333	-0.0198911	-0.175189	0.289116	-0.35174	0	0	-0.166614	-0.061664	-0.0189955	0.384758	-0.150219	0	0	-0.278242	-0.0114869	0.15092	-0.319999	-0.549691	-0.0193418	1.87478	1.26396	0	0	0.208832	-0.459582	0.687915	1.53552	1.5708	0	0
